# xmcd
#
# Track frame offsets: 
#        150
#        15406
#        27739
#        46907
#        66530
#        78377
#        91017
#        102541
#        113980
#        124150
#        140871
#        154017
#        164099
#
# Disc length: 2280 seconds
#
# Revision: 0
# Processed by: cddbd v1.5.2PL0 Copyright (c) Steve Scherf et al.
# Submitted via: ExactAudioCopy v1.0b1
#
DISCID=b608e60d
DTITLE=Pavel Bobek - Kruhy
DYEAR=2012
DGENRE=Country
TTITLE0=Kruhy
TTITLE1=Kanadská noc
TTITLE2=Nocí dál
TTITLE3=Výmluvný ďábel
TTITLE4=Sen potkáš za prvním rohem
TTITLE5=Začni
TTITLE6=Zas nemám kam jít
TTITLE7=Sním, stále sním
TTITLE8=San Miguel
TTITLE9=Sen se mu zdál
TTITLE10=Stará mříž
TTITLE11=Zlé chvíle jsou ty tam
TTITLE12=Ještě jednou
EXTD=
EXTT0=
EXTT1=
EXTT2=
EXTT3=
EXTT4=
EXTT5=
EXTT6=
EXTT7=
EXTT8=
EXTT9=
EXTT10=
EXTT11=
EXTT12=
PLAYORDER=
